<svg xmlns="http://www.w3.org/2000/svg" width="19.344" height="20.441" viewBox="0 0 19.344 20.441">
  <path id="box" d="M33.063,4.35a.64.64,0,0,0-.4-.592L23.634.048a.64.64,0,0,0-.486,0L14.115,3.759a.64.64,0,0,0-.4.592v11.74a.64.64,0,0,0,.4.592l9.033,3.711a.637.637,0,0,0,.485,0l9.033-3.711a.639.639,0,0,0,.4-.592ZM23.391,7.423,20.063,6.056l7.192-3.138,3.551,1.459ZM15,5.358l2.871,1.18V9.866a.64.64,0,1,0,1.279,0v-2.8l3.6,1.48v10.3L15,15.662Zm8.393-4.027,2.217.911L18.415,5.379l-2.44-1Zm.64,7.212,7.753-3.185v10.3L24.03,18.847Z" transform="translate(-13.719)" fill="#dadfe9"/>
</svg>
