<svg id="clock" xmlns="http://www.w3.org/2000/svg" width="20.172" height="20.172" viewBox="0 0 20.172 20.172">
  <g id="Group_9" data-name="Group 9">
    <path id="Path_8" data-name="Path 8" d="M10.086,0A10.086,10.086,0,1,0,20.172,10.086,10.1,10.1,0,0,0,10.086,0Zm0,17.967a7.881,7.881,0,1,1,7.881-7.881A7.89,7.89,0,0,1,10.086,17.967Z" fill="#00e6b4"/>
    <path id="Path_9" data-name="Path 9" d="M258.5,144.337v-4.227a.854.854,0,1,0-1.709,0v4.5c0,.013,0,.026,0,.039a.85.85,0,0,0,.246.646l3.182,3.182a.854.854,0,1,0,1.208-1.208Z" transform="translate(-247.539 -134.239)" fill="#00e6b4"/>
  </g>
</svg>
