<svg xmlns="http://www.w3.org/2000/svg" width="12.002" height="14.995" viewBox="0 0 12.002 14.995">
  <g id="pause" transform="translate(-4.729)">
    <path id="Path_11" data-name="Path 11" d="M8.9,12.906a2.087,2.087,0,0,1-2.086,2.089h0a2.087,2.087,0,0,1-2.086-2.089V2.089A2.087,2.087,0,0,1,6.815,0h0A2.087,2.087,0,0,1,8.9,2.089Z" transform="translate(0 0)" fill="#3b0078"/>
    <path id="Path_12" data-name="Path 12" d="M33.787,12.906A2.087,2.087,0,0,1,31.7,14.995h0a2.087,2.087,0,0,1-2.086-2.089V2.089A2.088,2.088,0,0,1,31.7,0h0a2.087,2.087,0,0,1,2.086,2.089Z" transform="translate(-17.057 0)" fill="#3b0078"/>
  </g>
</svg>
