<svg xmlns="http://www.w3.org/2000/svg" width="15.582" height="15.309" viewBox="0 0 15.582 15.309">
  <g id="pencil" transform="translate(0 0)">
    <g id="Group_10" data-name="Group 10" transform="translate(0 0)">
      <path id="Path_10" data-name="Path 10" d="M15.16,2.762,12.77.415a1.458,1.458,0,0,0-2.037,0L1.355,9.629a.5.5,0,0,0-.136.237l-1.2,4.818a.51.51,0,0,0,.622.611l4.9-1.183a.516.516,0,0,0,.241-.133L15.16,4.764A1.4,1.4,0,0,0,15.16,2.762ZM1.216,14.115l.049-.2.151.148Zm1.367-.33L1.552,12.772,2,10.977l2.409,2.367Zm2.835-.878L2.445,9.986l7.675-7.541,2.972,2.92ZM14.433,4.05l-.594.583-2.972-2.92.594-.583a.417.417,0,0,1,.583,0l2.389,2.347A.4.4,0,0,1,14.433,4.05Z" transform="translate(0 0)" fill="#3b0078"/>
    </g>
  </g>
</svg>
